<svg width="56" height="15" viewBox="0 0 56 15" fill="none" xmlns="http://www.w3.org/2000/svg">
<path d="M27.6363 7.28345C27.3404 7.28378 27.0567 7.4005 26.8476 7.60798C26.6385 7.81545 26.521 8.09671 26.521 8.38996V11.1733C26.521 11.3138 26.505 11.4469 26.3978 11.5031C26.3533 11.5238 26.304 11.5318 26.2552 11.5262C26.2064 11.5205 26.1602 11.5016 26.1217 11.4713C25.8901 11.293 25.4119 10.9266 25.2948 10.8326C25.2082 10.773 25.1099 10.732 25.0064 10.7122C24.9028 10.6924 24.7962 10.6943 24.6934 10.7178C24.2615 10.7758 23.8252 10.7963 23.3896 10.7788C22.679 10.7784 21.9794 10.6045 21.3527 10.2724C20.7261 9.94034 20.1916 9.46037 19.7966 8.87493C19.4015 8.28949 19.1582 7.61662 19.0879 6.91581C19.0177 6.21499 19.1227 5.50781 19.3938 4.8568C19.6649 4.20578 20.0936 3.63099 20.6421 3.18322C21.1907 2.73546 21.842 2.42852 22.5387 2.28955C23.2354 2.15057 23.9558 2.18384 24.6364 2.38641C25.317 2.58898 25.9368 2.95462 26.4409 3.45099C26.5441 3.55689 26.6676 3.64132 26.8041 3.69933C26.9407 3.75734 27.0875 3.78777 27.2361 3.78882C27.3846 3.78988 27.5319 3.76154 27.6692 3.70548C27.8066 3.64941 27.9313 3.56675 28.036 3.46232C28.1407 3.35789 28.2234 3.2338 28.2791 3.09732C28.3348 2.96084 28.3625 2.81472 28.3605 2.66751C28.3585 2.52029 28.3269 2.37496 28.2675 2.24001C28.2081 2.10506 28.1221 1.98321 28.0146 1.88161C27.0953 0.979267 25.9272 0.366582 24.6573 0.120657C23.3874 -0.125268 22.0725 0.00655449 20.8781 0.499537C19.6836 0.99252 18.663 1.82463 17.9446 2.89116C17.2262 3.95768 16.8422 5.21096 16.8409 6.49327C16.8357 7.33422 16.9982 8.16791 17.3191 8.94645C17.6399 9.72499 18.1128 10.4331 18.7105 11.03C19.3082 11.6269 20.0191 12.1009 20.8022 12.4248C21.5853 12.7487 22.4252 12.9161 23.2738 12.9174C23.8738 12.9233 24.4737 12.8951 25.0705 12.8331C25.8198 13.4144 27.0349 14.3536 27.1939 14.4489C27.2438 14.4829 27.3013 14.5043 27.3615 14.5111C27.4217 14.5179 27.4826 14.5099 27.5389 14.488C27.6708 14.4196 27.6893 14.251 27.6893 14.0752V12.115C28.3227 11.7486 28.7528 11.2234 28.7528 10.4662V8.38996C28.7528 8.0965 28.6352 7.81505 28.4258 7.60754C28.2164 7.40003 27.9324 7.28345 27.6363 7.28345Z" fill="white"/>
<path d="M43.5413 0.136719C43.251 0.136719 42.9726 0.252579 42.7672 0.458847C42.5618 0.665115 42.4462 0.944919 42.4459 1.23679V11.7324C42.441 11.88 42.4657 12.0271 42.5186 12.1649C42.5714 12.3027 42.6512 12.4285 42.7534 12.5346C42.8555 12.6408 42.9779 12.7252 43.1131 12.7828C43.2484 12.8405 43.3938 12.8702 43.5407 12.8702C43.6876 12.8702 43.833 12.8405 43.9682 12.7828C44.1035 12.7252 44.2258 12.6408 44.3279 12.5346C44.4301 12.4285 44.5099 12.3027 44.5628 12.1649C44.6156 12.0271 44.6403 11.88 44.6354 11.7324V1.23679C44.6351 0.945129 44.5197 0.665508 44.3146 0.459275C44.1095 0.253042 43.8314 0.13704 43.5413 0.136719Z" fill="white"/>
<path d="M13.8294 0.136719C13.5391 0.136719 13.2606 0.252579 13.0552 0.458847C12.8499 0.665115 12.7343 0.944919 12.734 1.23679V11.7324C12.7291 11.88 12.7538 12.0271 12.8067 12.1649C12.8595 12.3027 12.9393 12.4285 13.0415 12.5346C13.1436 12.6408 13.2659 12.7252 13.4012 12.7828C13.5364 12.8405 13.6818 12.8702 13.8288 12.8702C13.9757 12.8702 14.1211 12.8405 14.2563 12.7828C14.3916 12.7252 14.5139 12.6408 14.616 12.5346C14.7182 12.4285 14.798 12.3027 14.8509 12.1649C14.9037 12.0271 14.9284 11.88 14.9235 11.7324V1.23679C14.9232 0.945129 14.8078 0.665508 14.6027 0.459275C14.3976 0.253042 14.1194 0.13704 13.8294 0.136719Z" fill="white"/>
<path d="M10.223 0.136719H1.07372C0.785717 0.146235 0.512707 0.266722 0.312356 0.472734C0.112005 0.678745 0 0.95415 0 1.24078C0 1.5274 0.112005 1.8028 0.312356 2.00882C0.512707 2.21483 0.785717 2.33532 1.07372 2.34483H4.53652V11.7668C4.53652 12.0594 4.6534 12.3401 4.86145 12.547C5.06949 12.754 5.35167 12.8702 5.64589 12.8702C5.94011 12.8702 6.22229 12.754 6.43033 12.547C6.63838 12.3401 6.75526 12.0594 6.75526 11.7668V3.11944H6.02058C5.9696 3.11944 5.91913 3.10945 5.87204 3.09005C5.82494 3.07064 5.78215 3.04221 5.74611 3.00635C5.71006 2.9705 5.68147 2.92794 5.66197 2.8811C5.64246 2.83426 5.63242 2.78405 5.63242 2.73335C5.63242 2.68265 5.64246 2.63245 5.66197 2.5856C5.68147 2.53876 5.71006 2.4962 5.74611 2.46035C5.78215 2.4245 5.82494 2.39606 5.87204 2.37666C5.91913 2.35725 5.9696 2.34727 6.02058 2.34727H10.2168C10.3657 2.35219 10.514 2.32727 10.653 2.274C10.792 2.22073 10.9188 2.14019 11.0259 2.03719C11.1329 1.93418 11.2181 1.81081 11.2762 1.67441C11.3343 1.538 11.3643 1.39137 11.3643 1.24321C11.3643 1.09506 11.3343 0.948417 11.2762 0.812016C11.2181 0.675615 11.1329 0.552241 11.0259 0.449234C10.9188 0.346227 10.792 0.265693 10.653 0.212423C10.514 0.159153 10.3657 0.134236 10.2168 0.139155L10.223 0.136719Z" fill="white"/>
<path d="M40.4158 11.0778C40.4158 11.0778 37.8155 7.8472 37.6295 7.62315C38.5509 7.40761 40.3899 6.41275 40.3899 3.953C40.3899 1.01957 37.5088 0.136736 35.6919 0.136736H31.648C31.5014 0.135928 31.356 0.163882 31.2204 0.218977C31.0848 0.274073 30.9616 0.355215 30.8579 0.457708C30.7542 0.560201 30.6721 0.682009 30.6164 0.816076C30.5607 0.950143 30.5324 1.09381 30.5332 1.23875V11.7743C30.5342 12.0492 30.6389 12.3139 30.8269 12.5166C31.0148 12.7193 31.2725 12.8454 31.5494 12.8702C31.5815 12.8702 31.6147 12.8702 31.6468 12.8702C31.7935 12.87 31.9387 12.8413 32.0742 12.7857C32.2097 12.73 32.3328 12.6485 32.4364 12.5459C32.54 12.4432 32.6222 12.3213 32.6782 12.1873C32.7342 12.0532 32.7629 11.9096 32.7627 11.7645V8.50841C32.7671 8.47474 32.7627 8.44052 32.75 8.40899C32.7373 8.37746 32.7167 8.34965 32.6901 8.32819C32.4808 8.15932 32.314 7.94473 32.2028 7.70131C32.0917 7.45789 32.0392 7.19228 32.0495 6.9254C32.0398 6.67368 32.0881 6.42306 32.1907 6.19248C32.2934 5.96191 32.4477 5.75742 32.642 5.59446C32.6794 5.57311 32.7105 5.5424 32.7321 5.50543C32.7538 5.46845 32.7652 5.42651 32.7652 5.3838V2.33955H35.6919C35.719 2.33955 38.1555 2.33955 38.1555 3.95057C38.1555 5.66509 36.1304 5.83435 36.112 5.83435H33.8258C33.5298 5.83435 33.2459 5.95058 33.0366 6.15747C32.8274 6.36437 32.7098 6.64499 32.7098 6.93758C32.7098 7.23018 32.8274 7.51079 33.0366 7.71768C33.2459 7.92458 33.5298 8.04082 33.8258 8.04082H35.1056L38.6777 12.4525C38.8622 12.6812 39.1309 12.8281 39.4249 12.8608C39.7188 12.8936 40.0139 12.8096 40.2452 12.6273C40.4765 12.445 40.625 12.1793 40.6582 11.8887C40.6913 11.5981 40.6064 11.3064 40.4219 11.0778H40.4158Z" fill="white"/>
<path d="M51.1552 13.1442C49.7099 13.1226 48.2906 12.7539 47.0155 12.0688C46.886 12.0013 46.771 11.9087 46.6771 11.7964C46.5831 11.6842 46.5121 11.5544 46.468 11.4145C46.4239 11.2746 46.4076 11.1273 46.4201 10.9811C46.4326 10.8348 46.4736 10.6925 46.5407 10.5622C46.6079 10.4319 46.6999 10.3162 46.8115 10.2217C46.9231 10.1272 47.0521 10.0557 47.1912 10.0114C47.3302 9.96701 47.4766 9.95064 47.6219 9.9632C47.7673 9.97575 47.9088 10.017 48.0383 10.0845C49.0878 10.6321 50.2225 10.9248 51.2331 10.9076C52.8597 10.8819 53.7169 10.4177 53.7814 9.51743C53.8058 9.19897 53.8667 8.35382 51.8334 7.86387L51.7895 7.85162L51.6824 7.82223C51.3256 7.72791 50.9665 7.64952 50.6499 7.57726C50.4502 7.53316 50.2639 7.49274 50.0923 7.45477C46.6308 6.61942 46.324 4.5592 46.4506 3.40538C46.6673 1.41131 48.5667 0.043142 51.1759 0.00149672C53.18 -0.0315745 54.35 0.491442 54.9783 0.774385L55.0367 0.800106C55.298 0.92538 55.5004 1.14824 55.6009 1.42132C55.7014 1.69439 55.6921 1.99613 55.5749 2.26239C55.4577 2.52864 55.2419 2.73841 54.9734 2.8471C54.7049 2.95579 54.4048 2.95482 54.1369 2.8444L54.0749 2.81745C53.5379 2.57248 52.7246 2.21237 51.2124 2.23687C50.0545 2.25524 48.7615 2.70477 48.6556 3.64791C48.6154 4.01537 48.5338 4.7809 50.6036 5.28064C50.7497 5.31494 50.9263 5.35413 51.1126 5.39455C51.4559 5.46927 51.8431 5.55379 52.2546 5.66158L52.3691 5.69465C55.7124 6.50918 56.0741 8.54 55.99 9.68034C55.9158 10.6994 55.307 13.0769 51.2611 13.1418L51.1552 13.1442Z" fill="white"/>
<path d="M25.4666 5.5471C25.4664 5.66885 25.4301 5.78779 25.3623 5.88892C25.2945 5.99005 25.1982 6.06883 25.0857 6.1153C24.9732 6.16178 24.8494 6.17387 24.73 6.15006C24.6106 6.12624 24.5009 6.06759 24.4148 5.9815C24.3287 5.89541 24.2701 5.78574 24.2463 5.66634C24.2225 5.54694 24.2346 5.42316 24.281 5.31063C24.3275 5.19809 24.4063 5.10185 24.5074 5.03406C24.6085 4.96626 24.7275 4.92994 24.8492 4.92969C24.9304 4.92936 25.0108 4.9451 25.0859 4.976C25.161 5.00691 25.2292 5.05238 25.2866 5.10978C25.344 5.16717 25.3894 5.23537 25.4203 5.31043C25.4512 5.38549 25.467 5.46592 25.4666 5.5471Z" fill="white"/>
<path d="M22.4549 5.54709C22.4547 5.6689 22.4183 5.78789 22.3505 5.88905C22.2826 5.99021 22.1863 6.06898 22.0737 6.11542C21.9611 6.16186 21.8372 6.17388 21.7178 6.14997C21.5984 6.12605 21.4887 6.06727 21.4027 5.98105C21.3166 5.89483 21.2581 5.78505 21.2344 5.66556C21.2107 5.54608 21.223 5.42226 21.2697 5.30975C21.3163 5.19724 21.3953 5.10108 21.4966 5.03344C21.5979 4.96579 21.717 4.92969 21.8388 4.92969C21.9199 4.92952 22.0002 4.94538 22.0751 4.97637C22.15 5.00735 22.218 5.05284 22.2753 5.11022C22.3325 5.16761 22.3779 5.23574 22.4087 5.31072C22.4396 5.3857 22.4553 5.46603 22.4549 5.54709Z" fill="white"/>
<path d="M23.344 8.76217C22.5513 8.76217 21.9078 8.15819 21.9078 7.4152C21.9053 7.37725 21.9107 7.33919 21.9236 7.30339C21.9365 7.26759 21.9566 7.2348 21.9828 7.20705C22.0089 7.17931 22.0405 7.15719 22.0756 7.14206C22.1107 7.12694 22.1485 7.11914 22.1867 7.11914C22.2249 7.11914 22.2628 7.12694 22.2978 7.14206C22.3329 7.15719 22.3645 7.17931 22.3906 7.20705C22.4168 7.2348 22.4369 7.26759 22.4498 7.30339C22.4627 7.33919 22.4681 7.37725 22.4656 7.4152C22.4656 7.85212 22.8602 8.20726 23.344 8.20726C23.8278 8.20726 24.2236 7.85679 24.2236 7.4152C24.2236 7.34146 24.253 7.27073 24.3054 7.21859C24.3578 7.16645 24.4289 7.13716 24.503 7.13716C24.5772 7.13716 24.6483 7.16645 24.7007 7.21859C24.7531 7.27073 24.7825 7.34146 24.7825 7.4152C24.7825 8.15819 24.1367 8.76217 23.344 8.76217Z" fill="white"/>
</svg>
