<svg width="200" height="200" viewBox="0 0 200 200" fill="none" xmlns="http://www.w3.org/2000/svg">
<path d="M165.431 100.394C161.391 100.398 157.518 102.005 154.662 104.862C151.806 107.719 150.201 111.593 150.199 115.633V153.946C150.199 155.878 149.996 157.715 148.557 158.481C147.952 158.773 147.276 158.887 146.609 158.81C145.942 158.732 145.31 158.466 144.788 158.044C141.661 155.588 135.093 150.545 133.49 149.263C132.308 148.443 130.967 147.881 129.554 147.612C128.142 147.342 126.688 147.372 125.288 147.699C119.391 148.496 113.437 148.779 107.491 148.543C97.7909 148.542 88.2403 146.15 79.6845 141.579C71.1287 137.007 63.8314 130.398 58.4381 122.335C53.0448 114.272 49.7217 105.004 48.763 95.3512C47.8042 85.6983 49.2392 75.9578 52.9411 66.9915C56.643 58.0252 62.4977 50.1095 69.9871 43.9446C77.4766 37.7796 86.37 33.5555 95.8806 31.646C105.391 29.7364 115.226 30.2002 124.515 32.9964C133.803 35.7926 142.26 40.8349 149.136 47.6773C152.005 50.5266 155.888 52.1196 159.932 52.1056C163.975 52.0917 167.847 50.4721 170.697 47.603C173.546 44.734 175.139 40.8506 175.125 36.8071C175.111 32.7636 173.492 28.8913 170.623 26.0419C158.086 13.5738 142.137 5.09814 124.789 1.68425C107.44 -1.72963 89.4691 0.0712321 73.143 6.85963C56.8169 13.648 42.8671 25.1198 33.0536 39.8276C23.2401 54.5355 18.0026 71.8204 18.002 89.5016C17.9246 101.094 20.1402 112.588 24.5211 123.321C28.902 134.054 35.3619 143.815 43.529 152.043C51.6962 160.27 61.4095 166.802 72.1102 171.261C82.8108 175.721 94.2877 178.021 105.881 178.029C114.073 178.112 122.262 177.72 130.409 176.856C140.621 184.871 157.213 197.796 159.34 199.117C160.018 199.583 160.801 199.875 161.619 199.968C162.437 200.061 163.265 199.951 164.031 199.649C165.822 198.703 166.072 196.396 166.072 193.972V166.918C170.354 164.854 173.979 161.641 176.541 157.637C179.104 153.633 180.503 148.996 180.584 144.243V115.633C180.584 111.593 178.98 107.718 176.123 104.86C173.267 102.002 169.393 100.396 165.352 100.394" fill="#009EFF"/>
<path d="M136.008 76.9679C136.006 78.5845 135.526 80.1643 134.627 81.508C133.728 82.8516 132.451 83.8987 130.957 84.517C129.464 85.1352 127.82 85.297 126.235 84.9818C124.649 84.6666 123.192 83.8886 122.049 82.746C120.905 81.6035 120.126 80.1476 119.809 78.5623C119.492 76.977 119.652 75.3335 120.269 73.8392C120.886 72.3449 121.932 71.0669 123.275 70.1667C124.617 69.2665 126.197 68.7844 127.814 68.7813C128.89 68.7782 129.956 68.9878 130.951 69.398C131.946 69.8082 132.851 70.411 133.612 71.1717C134.373 71.9324 134.977 72.8361 135.388 73.8307C135.799 74.8254 136.01 75.8915 136.008 76.9679Z" fill="#009EFF"/>
<path d="M94.4884 76.9678C94.4868 78.5854 94.0056 80.1663 93.1056 81.5104C92.2057 82.8545 90.9273 83.9016 89.4323 84.5192C87.9372 85.1368 86.2926 85.2972 84.7063 84.9801C83.1201 84.663 81.6636 83.8826 80.5208 82.7377C79.3781 81.5928 78.6006 80.1348 78.2865 78.5479C77.9724 76.9611 78.136 75.3168 78.7564 73.8229C79.3769 72.329 80.4264 71.0527 81.7722 70.1553C83.1181 69.2579 84.6998 68.7797 86.3174 68.7813C87.3924 68.7792 88.4571 68.9897 89.4504 69.4005C90.4437 69.8114 91.3459 70.4146 92.1053 71.1754C92.8647 71.9362 93.4661 72.8396 93.8751 73.8337C94.2841 74.8278 94.4925 75.8929 94.4884 76.9678Z" fill="#009EFF"/>
<path d="M107.045 121.666C101.746 121.812 96.606 119.852 92.749 116.216C88.892 112.58 86.6324 107.565 86.4648 102.267C86.4648 101.205 86.8866 100.187 87.6374 99.4362C88.3882 98.6855 89.4064 98.2637 90.4682 98.2637C91.5299 98.2637 92.5482 98.6855 93.299 99.4362C94.0498 100.187 94.4716 101.205 94.4716 102.267C94.7921 105.382 96.2562 108.267 98.5808 110.364C100.905 112.462 103.925 113.623 107.056 113.623C110.187 113.623 113.207 112.462 115.532 110.364C117.857 108.267 119.321 105.382 119.641 102.267C119.641 101.206 120.063 100.189 120.813 99.439C121.563 98.689 122.58 98.2676 123.641 98.2676C124.701 98.2676 125.719 98.689 126.469 99.439C127.219 100.189 127.64 101.206 127.64 102.267C127.468 107.565 125.207 112.579 121.349 116.214C117.491 119.849 112.351 121.809 107.052 121.666" fill="#009EFF"/>
</svg>
